<?xml version="1.0" encoding="iso-8859-1"?>
<!-- Generator: Adobe Illustrator 19.0.0, SVG Export Plug-In . SVG Version: 6.00 Build 0)  -->
<svg version="1.1" id="Layer_1" xmlns="http://www.w3.org/2000/svg" x="0px" y="0px"
	 viewBox="0 0 512 512" style="enable-background:new 0 0 512 512;" xml:space="preserve">
	<defs>
		<style>
			.a { fill:#75EBE5; }
			.b { fill:#F92859; }

			svg:not(:hover) {
				animation: rotate 4s linear infinite;
			}

			@keyframes rotate  {
				100% {
					transform: rotate(360deg);
				}
			}
		</style>
		<style>
			@media screen and (min-width: 1000px) {
				.a { fill:#F92859; }
				.b { fill:#75EBE5; }
			}
		</style>
	</defs>
<path class="a" d="M501.801,310.969V201.031h-52.488c-4.279-15.077-10.286-29.425-17.773-42.835l37.136-37.136
	l-77.737-77.737l-37.136,37.136c-13.409-7.487-27.757-13.495-42.835-17.773V10.199H201.031v52.488
	c-15.077,4.279-29.425,10.286-42.835,17.773L121.06,43.324l-77.737,77.737l37.136,37.136c-7.487,13.409-13.495,27.757-17.773,42.835
	H10.199v109.936h52.488c4.279,15.077,10.286,29.425,17.773,42.835L43.324,390.94l77.737,77.737l37.136-37.136
	c13.409,7.487,27.757,13.495,42.835,17.773v52.487h109.936v-52.488c15.077-4.279,29.425-10.286,42.835-17.773l37.136,37.136
	l77.737-77.737l-37.136-37.136c7.487-13.409,13.495-27.757,17.773-42.835h52.487V310.969z"/>
<circle class="b" cx="256" cy="256" r="149.928"/>
<circle style="fill:#FFFFFF;" cx="256" cy="256" r="112.711"/>
<circle style="fill:#F92859;" cx="256" cy="256" r="44.142"/>
<g>
	<path style="fill:#333333;" d="M310.969,512H201.031c-5.632,0-10.199-4.566-10.199-10.199v-44.932
		c-10.548-3.424-20.848-7.698-30.771-12.77l-31.789,31.789c-1.913,1.912-4.507,2.987-7.212,2.987c-2.705,0-5.298-1.075-7.212-2.987
		l-77.736-77.736c-3.983-3.983-3.983-10.441,0-14.424l31.789-31.79c-5.071-9.92-9.346-20.222-12.77-30.77H10.199
		C4.567,321.168,0,316.602,0,310.969V201.031c0-5.633,4.567-10.199,10.199-10.199h44.932c3.425-10.548,7.7-20.85,12.77-30.77
		l-31.789-31.79c-3.983-3.983-3.983-10.441,0-14.424l77.736-77.736c1.913-1.912,4.507-2.987,7.212-2.987
		c2.705,0,5.298,1.075,7.212,2.987l31.789,31.789c9.923-5.072,20.223-9.348,30.771-12.77V10.199C190.832,4.566,195.399,0,201.031,0
		h109.936c5.632,0,10.199,4.566,10.199,10.199v44.932c10.548,3.424,20.848,7.698,30.771,12.77l31.789-31.789
		c1.913-1.912,4.507-2.987,7.212-2.987s5.298,1.075,7.212,2.987l77.736,77.736c3.983,3.983,3.983,10.441,0,14.424l-31.789,31.79
		c5.071,9.92,9.346,20.222,12.77,30.77h44.933c5.632,0,10.199,4.566,10.199,10.199v109.936c0,5.633-4.567,10.199-10.199,10.199
		h-44.932c-3.425,10.548-7.7,20.85-12.77,30.77l31.789,31.79c3.983,3.983,3.983,10.441,0,14.424l-77.736,77.736
		c-1.913,1.912-4.507,2.987-7.212,2.987s-5.298-1.075-7.212-2.987l-31.789-31.789c-9.923,5.072-20.223,9.348-30.771,12.77v44.933
		C321.168,507.434,316.601,512,310.969,512z M211.231,491.602h89.538v-42.289c0-4.56,3.028-8.566,7.415-9.812
		c14.087-3.997,27.762-9.672,40.648-16.866c3.981-2.223,8.958-1.533,12.184,1.693l29.924,29.924l63.313-63.313l-29.926-29.926
		c-3.225-3.226-3.918-8.201-1.693-12.184c7.194-12.883,12.868-26.558,16.867-40.648c1.245-4.387,5.252-7.414,9.812-7.414h42.289
		v-89.538h-42.289c-4.56,0-8.566-3.027-9.812-7.414c-3.999-14.089-9.674-27.765-16.867-40.648
		c-2.224-3.983-1.532-8.958,1.693-12.184l29.926-29.925L390.94,57.748l-29.924,29.924c-3.226,3.227-8.203,3.919-12.184,1.693
		c-12.886-7.195-26.561-12.869-40.648-16.866c-4.387-1.245-7.415-5.252-7.415-9.812V20.398h-89.538v42.289
		c0,4.56-3.028,8.566-7.415,9.812c-14.087,3.997-27.762,9.672-40.648,16.866c-3.981,2.223-8.957,1.533-12.184-1.693l-29.924-29.924
		L57.748,121.06l29.925,29.925c3.225,3.226,3.918,8.201,1.693,12.184c-7.193,12.883-12.868,26.558-16.867,40.648
		c-1.245,4.387-5.252,7.414-9.812,7.414H20.398v89.538h42.289c4.56,0,8.566,3.027,9.812,7.414
		c3.999,14.089,9.674,27.765,16.867,40.648c2.224,3.983,1.532,8.958-1.693,12.184L57.748,390.94l63.313,63.313l29.924-29.924
		c3.227-3.226,8.204-3.918,12.184-1.693c12.886,7.194,26.561,12.869,40.648,16.866c4.387,1.245,7.415,5.252,7.415,9.812v42.289
		H211.231z"/>
	<path style="fill:#333333;" d="M256,416.128c-88.295,0-160.127-71.833-160.127-160.128S167.705,95.873,256,95.873
		S416.128,167.705,416.128,256S344.295,416.128,256,416.128z M256,116.271c-77.047,0-139.729,62.682-139.729,139.729
		S178.953,395.729,256,395.729S395.729,333.047,395.729,256S333.047,116.271,256,116.271z"/>
	<path style="fill:#333333;" d="M256,378.909c-67.772,0-122.909-55.137-122.909-122.909S188.228,133.091,256,133.091
		S378.909,188.228,378.909,256S323.772,378.909,256,378.909z M256,153.49c-56.524,0-102.51,45.985-102.51,102.51
		S199.476,358.51,256,358.51S358.51,312.524,358.51,256S312.524,153.49,256,153.49z"/>
	<path style="fill:#333333;" d="M256,310.338c-29.962,0-54.338-24.376-54.338-54.338s24.376-54.338,54.338-54.338
		s54.338,24.376,54.338,54.338S285.962,310.338,256,310.338z M256,222.06c-18.716,0-33.94,15.225-33.94,33.94
		c0,18.715,15.224,33.94,33.94,33.94s33.94-15.225,33.94-33.94C289.94,237.285,274.716,222.06,256,222.06z"/>
	<path style="fill:#333333;" d="M334.509,273.339c-0.306,0-0.614-0.013-0.924-0.042c-5.611-0.504-9.75-5.461-9.246-11.07
		c0.186-2.06,0.278-4.155,0.278-6.227c0-5.633,4.567-10.199,10.199-10.199c5.632,0,10.199,4.566,10.199,10.199
		c0,2.678-0.121,5.387-0.361,8.051C344.179,269.351,339.729,273.339,334.509,273.339z"/>
	<path style="fill:#333333;" d="M256,345.016c-5.632,0-10.199-4.566-10.199-10.199s4.567-10.199,10.199-10.199
		c22.489,0,43.581-11.049,56.422-29.555c3.211-4.628,9.565-5.777,14.194-2.565c4.627,3.211,5.776,9.566,2.565,14.194
		C312.53,330.688,285.173,345.016,256,345.016z"/>
</g>
<g>
</g>
<g>
</g>
<g>
</g>
<g>
</g>
<g>
</g>
<g>
</g>
<g>
</g>
<g>
</g>
<g>
</g>
<g>
</g>
<g>
</g>
<g>
</g>
<g>
</g>
<g>
</g>
<g>
</g>
</svg>
